# xmcd
#
# Track frame offsets: 
#        150
#        10614
#        29355
#        49622
#        67669
#        82334
#        100628
#        118196
#        137860
#        157423
#        175762
#        193808
#        213945
#        232929
#        247528
#        264220
#        280161
#        299235
#        313675
#        325428
#        346139
#
# Disc length: 4786 seconds
#
# Revision: 0
# Processed by: cddbd v1.5.2PL0 Copyright (c) Steve Scherf et al.
# Submitted via: ExactAudioCopy v0.99pb4
#
DISCID=2d12b015
DTITLE=Various Artist - prevue promo 1104A-2
DYEAR=2002
DGENRE=pop
TTITLE0=Barbra Streisand with Ray Charles - Cryin' Time( - Applause Ta
TTITLE0=g)
TTITLE1=Sheryl Crow - C'Mon, C'Mon(Radio Remix Edit)
TTITLE2=Barbra Streisand with Josh Groban - All I Know Of Love
TTITLE3=Mary J. Blige - Family Affair(Spanish Fly Remix)
TTITLE4=Who Da Funk feat.  Jessica Eve - Shiny Disco Balls
TTITLE5=Flip and Fill feat.  Kelly Llorenna - True Love Never Dies(Pasca
TTITLE5=l Remix)
TTITLE6=DJ Encore feat.  Engelina - Walking In The Sky(Original Mix)
TTITLE7=JC Chasez - Blowin' Me Up (With Her Love)(Radio Edit #1 -  Mov
TTITLE7=ie "Drumline")
TTITLE8=JC Chasez - Blowin' Me Up (With Her Love)(Radio Edit #2 -  Mov
TTITLE8=ie "Drumline")
TTITLE9=Paul Oakenfold - James Bond Theme (Bond Vs. Oakenfold)(Instrum
TTITLE9=ental - Album Version)
TTITLE10=Derek Trucks Band, The feat.  Soloman Burke - Home In Your He
TTITLE10=art
TTITLE11=Johnny Cash - Man Comes Around, The
TTITLE12=John P. Kee and New Life - Just For Me(Album Version - With Bro
TTITLE12=adcast - Watch Tag)
TTITLE13=John P. Kee and New Life - Just For Me(Album Version - Without 
TTITLE13=Broadcast - Watch Tag)
TTITLE14=Andy Stochansky - Stutter
TTITLE15=N.E.R.D. - Lapdance(Lyrics!!! - "Clean Radio Edit")
TTITLE16=Chevelle - Send The Pain Below
TTITLE17=Something Corporate - Forget December
TTITLE18=System Of A Down - Inner Vision
TTITLE19=Santana feat.  P.O.D. - America
TTITLE20=Zed - Starlight
EXTD=
EXTT0=
EXTT1=
EXTT2=
EXTT3=
EXTT4=
EXTT5=
EXTT6=
EXTT7=
EXTT8=
EXTT9=
EXTT10=
EXTT11=
EXTT12=
EXTT13=
EXTT14=
EXTT15=
EXTT16=
EXTT17=
EXTT18=
EXTT19=
EXTT20=
PLAYORDER=
